<svg viewBox="0 0 48 58" fill="none" xmlns="http://www.w3.org/2000/svg">
<path d="M46.166 19.783C45.908 19.945 39.765 23.354 39.765 30.913C40.055 39.534 47.517 42.557 47.645 42.557C47.517 42.719 46.518 46.676 43.56 50.824C41.213 54.398 38.607 58 34.65 58C30.886 58 29.535 55.619 25.192 55.619C20.528 55.619 19.208 58 15.637 58C11.68 58 8.881 54.205 6.405 50.665C3.189 46.032 0.454998 38.762 0.357998 31.782C0.292998 28.083 1.002 24.447 2.802 21.359C5.343 17.047 9.879 14.121 14.833 14.024C18.628 13.896 22.006 16.63 24.323 16.63C26.543 16.63 30.693 14.024 35.388 14.024C37.415 14.026 42.82 14.636 46.166 19.783ZM24.002 13.285C23.326 9.907 25.192 6.529 26.929 4.374C29.149 1.769 32.655 0 35.678 0C35.871 3.378 34.648 6.691 32.462 9.104C30.5 11.71 27.122 13.671 24.002 13.285Z" fill="url(#paint0_linear_201_4)"/>
<defs>
<linearGradient id="paint0_linear_201_4" x1="47.5" y1="-0.999997" x2="5" y2="53" gradientUnits="userSpaceOnUse">
<stop stop-color="#C2B3FF"/>
<stop offset="0.5" stop-color="#9C83FF"/>
<stop offset="1" stop-color="#574A8B"/>
</linearGradient>
</defs>
</svg>
